<?xml version="1.0" encoding="UTF-8" standalone="no"?>
<!-- Created with Inkscape (http://www.inkscape.org/) -->

<svg
   width="1080"
   height="1080"
   viewBox="0 0 1080 1080"
   version="1.1"
   id="svg1"
   xml:space="preserve"
   xmlns="http://www.w3.org/2000/svg"
   xmlns:svg="http://www.w3.org/2000/svg"><defs
     id="defs1" /><g
     id="layer1"><path
       style="vector-effect:non-scaling-stroke;fill:#000000;fill-opacity:1;fill-rule:evenodd;stroke:none;stroke-width:0.601982;stroke-linejoin:round;stroke-miterlimit:6.3;-inkscape-stroke:hairline;paint-order:stroke fill markers"
       d="m 467.13935,765.45049 c -4.96152,0 -6.08887,-2.00398 -6.08887,-6.15095 0,-8.34121 59.78169,-38.38583 59.78169,-116.28842 0,0 -34.42384,52.22255 -95.44795,52.22255 -61.02409,0 -117.74889,-43.23676 -118.59467,-121.89429 C 306.60467,495.5705 378.38208,429.15407 437.75347,369.80098 497.12488,310.44787 527.49829,264.00484 540,242.54051 c 12.5017,21.46433 42.8751,67.90736 102.24652,127.26047 59.3714,59.35309 131.14879,125.76952 130.96393,203.5384 -0.84578,78.65753 -57.57059,121.89429 -118.59468,121.89429 -61.0241,0 -95.44795,-52.22255 -95.44795,-52.22255 0,77.90259 59.7817,107.94721 59.7817,116.28842 0,4.14697 -1.12735,6.15095 -6.08888,6.15095 z"
       id="path2-7" /><path
       id="path12"
       style="color:#000000;fill:#000000;fill-rule:evenodd;stroke-width:1.45251;stroke-linejoin:round;stroke-miterlimit:6.3;-inkscape-stroke:none;paint-order:stroke fill markers"
       d="M 514.41371,14.733454 C 244.70232,27.679263 28.046644,244.09307 14.750475,513.71298 L 41.86303,508.33983 C 57.549884,257.49089 258.09994,57.151681 509.04339,41.811962 Z m 51.17257,0 5.37032,27.078508 C 821.90006,57.151681 1022.4501,257.49089 1038.137,508.33983 l 27.1125,5.37315 C 1051.9533,244.09307 835.29767,27.679263 565.58628,14.733454 Z M 14.716428,564.88841 C 27.33474,835.15438 244.23877,1052.2985 514.41371,1065.2665 l -5.37032,-27.0785 C 257.62806,1022.8195 56.777091,821.7604 41.758072,570.25021 Z m 1050.567172,0 -27.0417,5.3618 C 1023.2229,821.7604 822.37194,1022.8195 570.9566,1038.188 l -5.37032,27.0785 c 270.17495,-12.968 487.07902,-230.11212 499.69732,-500.37809 z" /><circle
       style="fill:none;fill-opacity:1;fill-rule:evenodd;stroke:#000000;stroke-width:26.6753;stroke-linejoin:round;stroke-miterlimit:6.3;stroke-dasharray:none;stroke-opacity:1;paint-order:stroke fill markers"
       id="path12-6"
       cx="540"
       cy="540.81873"
       r="405.20831" /><path
       style="vector-effect:non-scaling-stroke;fill:#000000;fill-opacity:1;fill-rule:evenodd;stroke:#000000;stroke-width:1;stroke-linejoin:round;stroke-miterlimit:6.3;stroke-dasharray:none;stroke-opacity:1;-inkscape-stroke:hairline;paint-order:stroke fill markers"
       id="path13"
       d="m 540,146.01146 18.39745,31.86532 -36.7949,0 z"
       transform="matrix(1.4525094,0,0,4.2300698,-244.35508,-616.82079)" /><path
       style="vector-effect:non-scaling-stroke;fill:#000000;fill-opacity:1;fill-rule:evenodd;stroke:#000000;stroke-width:1;stroke-linejoin:round;stroke-miterlimit:6.3;stroke-dasharray:none;stroke-opacity:1;-inkscape-stroke:hairline;paint-order:stroke fill markers"
       id="path13-9"
       d="m 540,146.01146 18.39745,31.86532 -36.7949,0 z"
       transform="matrix(1.4525094,0,0,1.7271316,-244.35508,-171.6062)" /><path
       style="vector-effect:non-scaling-stroke;fill:#000000;fill-opacity:1;fill-rule:evenodd;stroke:#000000;stroke-width:1;stroke-linejoin:round;stroke-miterlimit:6.3;stroke-dasharray:none;stroke-opacity:1;-inkscape-stroke:hairline;paint-order:stroke fill markers"
       id="path13-9-0"
       d="m 540,146.01146 18.39745,31.86532 -36.7949,0 z"
       transform="matrix(1.0270792,-1.0270792,1.2212665,1.2212665,-517.80436,591.44123)" /><path
       style="vector-effect:non-scaling-stroke;fill:#000000;fill-opacity:1;fill-rule:evenodd;stroke:#000000;stroke-width:1;stroke-linejoin:round;stroke-miterlimit:6.3;stroke-dasharray:none;stroke-opacity:1;-inkscape-stroke:hairline;paint-order:stroke fill markers"
       id="path13-9-0-1"
       d="m 540,146.01146 18.39745,31.86532 -36.7949,0 z"
       transform="matrix(1.0270792,1.0270792,-1.2212665,1.2212665,488.55877,-517.80437)" /><path
       style="vector-effect:non-scaling-stroke;fill:#000000;fill-opacity:1;fill-rule:evenodd;stroke:#000000;stroke-width:1;stroke-linejoin:round;stroke-miterlimit:6.3;stroke-dasharray:none;stroke-opacity:1;-inkscape-stroke:hairline;paint-order:stroke fill markers"
       id="path13-9-0-8"
       d="m 540,146.01146 18.39745,31.86532 -36.7949,0 z"
       transform="matrix(-1.0270792,1.0270792,-1.2212665,-1.2212665,1597.8044,488.55874)" /><path
       style="vector-effect:non-scaling-stroke;fill:#000000;fill-opacity:1;fill-rule:evenodd;stroke:#000000;stroke-width:1;stroke-linejoin:round;stroke-miterlimit:6.3;stroke-dasharray:none;stroke-opacity:1;-inkscape-stroke:hairline;paint-order:stroke fill markers"
       id="path13-9-0-1-9"
       d="m 540,146.01146 18.39745,31.86532 -36.7949,0 z"
       transform="matrix(-1.0270792,-1.0270792,1.2212665,-1.2212665,591.44123,1597.8044)" /><path
       style="vector-effect:non-scaling-stroke;fill:#000000;fill-opacity:1;fill-rule:evenodd;stroke:#000000;stroke-width:1;stroke-linejoin:round;stroke-miterlimit:6.3;stroke-dasharray:none;stroke-opacity:1;-inkscape-stroke:hairline;paint-order:stroke fill markers"
       id="path13-0"
       d="m 540,146.01146 18.39745,31.86532 -36.7949,0 z"
       transform="matrix(-1.4525094,0,0,-4.2300698,1324.3551,1696.1266)" /><path
       style="vector-effect:non-scaling-stroke;fill:none;fill-opacity:1;fill-rule:evenodd;stroke:#000000;stroke-width:1;stroke-linejoin:round;stroke-miterlimit:6.3;stroke-dasharray:none;stroke-opacity:1;-inkscape-stroke:hairline;paint-order:stroke fill markers"
       id="path13-1"
       d="m 540,146.01146 18.39745,31.86532 -36.7949,0 z"
       transform="matrix(-1.4525094,0,0,-4.2300698,1324.3551,1696.1266)" /><path
       style="vector-effect:non-scaling-stroke;fill:#000000;fill-opacity:1;fill-rule:evenodd;stroke:#000000;stroke-width:1;stroke-linejoin:round;stroke-miterlimit:6.3;stroke-dasharray:none;stroke-opacity:1;-inkscape-stroke:hairline;paint-order:stroke fill markers"
       id="path13-5"
       d="m 540,146.01146 18.39745,31.86532 -36.7949,0 z"
       transform="matrix(0,1.4525094,-4.2300698,0,1697.6387,-244.35516)" /><path
       style="vector-effect:non-scaling-stroke;fill:#000000;fill-opacity:1;fill-rule:evenodd;stroke:#000000;stroke-width:1;stroke-linejoin:round;stroke-miterlimit:6.3;stroke-dasharray:none;stroke-opacity:1;-inkscape-stroke:hairline;paint-order:stroke fill markers"
       id="path13-1-0"
       d="m 540,146.01146 18.39745,31.86532 -36.7949,0 z"
       transform="matrix(0,-1.4525094,4.2300698,0,-617.63868,1324.3549)" /><rect
       style="fill:#000000;fill-opacity:1;fill-rule:evenodd;stroke:none;stroke-width:20.8695;stroke-linejoin:round;stroke-miterlimit:6.3;stroke-dasharray:none;stroke-opacity:1;paint-order:stroke fill markers"
       id="rect13"
       width="26.107746"
       height="151.42491"
       x="-11.839514"
       y="364.61389"
       ry="0"
       transform="rotate(-45)" /><rect
       style="fill:#000000;fill-opacity:1;fill-rule:evenodd;stroke:none;stroke-width:20.8695;stroke-linejoin:round;stroke-miterlimit:6.3;stroke-dasharray:none;stroke-opacity:1;paint-order:stroke fill markers"
       id="rect13-4"
       width="26.107746"
       height="151.42491"
       x="-775.51483"
       y="-399.06143"
       ry="0"
       transform="rotate(-135)" /><rect
       style="fill:#000000;fill-opacity:1;fill-rule:evenodd;stroke:none;stroke-width:20.8695;stroke-linejoin:round;stroke-miterlimit:6.3;stroke-dasharray:none;stroke-opacity:1;paint-order:stroke fill markers"
       id="rect13-6"
       width="26.107746"
       height="151.42491"
       x="-11.839519"
       y="-1162.7368"
       ry="0"
       transform="rotate(135)" /><rect
       style="fill:#000000;fill-opacity:1;fill-rule:evenodd;stroke:none;stroke-width:20.8695;stroke-linejoin:round;stroke-miterlimit:6.3;stroke-dasharray:none;stroke-opacity:1;paint-order:stroke fill markers"
       id="rect13-4-2"
       width="26.107746"
       height="151.42491"
       x="751.83575"
       y="-399.06143"
       ry="0"
       transform="rotate(45)" /></g></svg>
